#!OML:ASF I:\Actors\actors\Patient Classification 2\Patient 1\Session 1\actor1.ASF
:FULLY-SPECIFIED
:DEGREES
696
root -0.523097 18.8898 4.54164 18.7472 4.78797 0.17926
lowerback 26.7683 1.22094 -1.40207
upperback 1.42956 0.978515 -1.36893
thorax -13.3731 0.474373 -1.12825
lowerneck -7.97144 0.622715 -2.80362
upperneck -7.05339 1.14197 2.16503
head -0.890445 0.643542 1.15322
rclavicle 2.38542e-015 -1.21259e-014
rhumerus 43.048 54.9292 -68.1345
rradius 141.857
rwrist -8.49347
rhand -32.5539 -27.0466
rfingers 7.12502
rthumb -5.78353 -56.9477
lclavicle 2.38542e-015 -1.21259e-014
lhumerus 45.0534 -46.9952 68.0691
lradius 145.327
lwrist 31.2157
lhand -22.7242 -53.0444
lfingers 7.12502
lthumb 3.70945 -23.0969
rfemur -15.2806 -5.02241 14.1054
rtibia -2.78299e-015
rfoot -14.8253 -16.3701
rtoes -1.07461
lfemur -32.7615 -2.68759 -12.9364
ltibia 25.5075
lfoot -12.6386 5.83698
ltoes -56.2198
697
root -0.524196 18.8895 4.54548 18.6561 4.86766 0.146188
lowerback 26.569 1.26013 -1.49924
upperback 1.45719 1.02211 -1.25553
thorax -13.2359 0.505354 -0.952966
lowerneck -7.93979 0.57103 -2.62993
upperneck -6.91697 1.05299 2.05889
head -0.848698 0.594128 1.08825
rclavicle 2.13694e-014 -8.54774e-015
rhumerus 41.4446 55.3163 -70.0283
rradius 142.22
rwrist -9.59824
rhand -31.5526 -26.4149
rfingers 7.12502
rthumb -4.81672 -56.3402
lclavicle 2.13694e-014 -8.54774e-015
lhumerus 44.9056 -46.9274 68.2158
lradius 145.298
lwrist 31.9551
lhand -22.7974 -52.9083
lfingers 7.12502
lthumb 3.63878 -22.9596
rfemur -15.1432 -5.07101 14.174
rtibia 1.19271e-014
rfoot -14.9208 -16.3901
rtoes -1.1241
lfemur -32.6818 -2.78229 -12.8574
ltibia 25.5631
lfoot -12.6612 5.77512
ltoes -56.3051
698
root -0.523549 18.8872 4.54817 18.5223 4.93746 0.110957
lowerback 26.336 1.26202 -1.50745
upperback 1.55503 1.04047 -1.1809
thorax -12.9962 0.517987 -0.861929
lowerneck -7.903 0.51511 -2.50077
upperneck -6.85882 0.965724 2.0348
head -0.833392 0.546723 1.05703
rclavicle -1.14301e-014 1.17283e-014
rhumerus 41.6159 54.9647 -69.9469
rradius 142.466
rwrist -11.0664
rhand -31.2019 -26.5045
rfingers 7.12502
rthumb -4.47806 -56.4371
lclavicle -1.14301e-014 1.17283e-014
lhumerus 44.9368 -46.7557 68.283
lradius 145.283
lwrist 32.6764
lhand -22.8714 -52.6644
lfingers 7.12502
lthumb 3.56727 -22.7145
rfemur -14.9645 -5.10733 14.2323
rtibia -6.75868e-015
rfoot -14.9676 -16.4108
rtoes -1.17962
lfemur -32.5508 -2.86622 -12.7867
ltibia 25.6
lfoot -12.6606 5.67771
ltoes -56.4119
699
root -0.52122 18.884 4.55043 18.3696 5.00474 0.0703294
lowerback 26.4733 1.21761 -1.39992
upperback 1.46496 1.01093 -1.17216
thorax -13.1745 0.49799 -0.908182
lowerneck -7.78968 0.444274 -2.25879
upperneck -6.73847 0.847572 2.00875
head -0.809938 0.480537 1.00527
rclavicle 2.62396e-014 -8.15017e-015
rhumerus 41.1272 55.0568 -70.4345
rradius 142.692
rwrist -12.1382
rhand -30.7478 -26.3073
rfingers 7.12502
rthumb -4.03956 -56.2488
lclavicle 2.62396e-014 -8.15017e-015
lhumerus 44.7001 -46.7123 68.488
lradius 145.304
lwrist 33.5801
lhand -22.9302 -52.2777
lfingers 7.12502
lthumb 3.51047 -22.3268
rfemur -14.7695 -5.1455 14.2701
rtibia -2.78299e-015
rfoot -15.05 -16.3466
rtoes -0.888218
lfemur -32.3917 -3.05326 -12.6885
ltibia 25.6206
lfoot -12.7146 5.70891
ltoes -56.4312
700
root -0.519104 18.8828 4.55284 18.1974 5.0158 0.0248674
lowerback 26.6457 1.1769 -1.36041
upperback 1.3748 0.969473 -1.1346
thorax -13.3743 0.477682 -0.878359
lowerneck -7.94887 0.355201 -1.99671
upperneck -6.35439 0.700073 1.82402
head -0.659768 0.400616 0.900677
rclavicle -2.47487e-014 1.13307e-014
rhumerus 40.6357 55.1243 -70.9426
rradius 142.882
rwrist -13.2345
rhand -30.1147 -25.8902
rfingers 7.12502
rthumb -3.4282 -55.8424
lclavicle -2.47487e-014 1.13307e-014
lhumerus 44.4491 -46.6628 68.7338
lradius 145.333
lwrist 34.5291
lhand -22.9081 -52.0941
lfingers 7.12502
lthumb 3.53184 -22.1436
rfemur -14.5676 -5.12761 14.2928
rtibia -7.63333e-014
rfoot -15.1184 -16.3063
rtoes -1.1652
lfemur -32.1881 -3.38414 -12.5482
ltibia 25.6345
lfoot -12.8712 5.93105
ltoes -56.3588
701
root -0.517528 18.8832 4.55497 18.0398 4.98575 -0.0292142
lowerback 26.7225 1.13686 -1.36414
upperback 1.3587 0.921272 -1.08493
thorax -13.4361 0.458039 -0.803188
lowerneck -8.82886 0.217832 -2.18261
upperneck -5.35746 0.538743 2.00267
head -0.206264 0.325961 0.98976
rclavicle -7.05686e-015 -3.57812e-015
rhumerus 40.4158 55.0214 -71.2196
rradius 143.111
rwrist -14.5066
rhand -29.4891 -25.6197
rfingers 7.12502
rthumb -2.82408 -55.5807
lclavicle -7.05686e-015 -3.57812e-015
lhumerus 44.3149 -46.5375 68.9422
lradius 145.368
lwrist 35.4461
lhand -22.7224 -52.2594
lfingers 7.12502
lthumb 3.71116 -22.312
rfemur -14.3879 -5.06592 14.3253
rtibia -3.18055e-015
rfoot -15.1939 -16.3243
rtoes -1.83801
lfemur -31.9853 -3.78653 -12.3721
ltibia 25.645
lfoot -13.0785 6.23006
ltoes -56.1263
702
root -0.51778 18.8842 4.55733 17.8961 4.94314 -0.0942331
lowerback 26.7236 1.08469 -1.32006
upperback 1.27845 0.870067 -1.05212
thorax -13.5312 0.433437 -0.773379
lowerneck -9.03521 0.0940309 -2.70032
upperneck -4.70289 0.42264 2.58752
head 0.0349688 0.279453 1.26416
rclavicle -2.42517e-014 -9.14409e-015
rhumerus 39.9116 54.8084 -71.7778
rradius 143.305
rwrist -15.862
rhand -28.8038 -25.3702
rfingers 7.12502
rthumb -2.16224 -55.339
lclavicle -2.42517e-014 -9.14409e-015
lhumerus 43.9652 -46.5742 69.2698
lradius 145.449
lwrist 36.2888
lhand -22.5259 -52.298
lfingers 7.12502
lthumb 3.9009 -22.3539
rfemur -14.227 -4.98637 14.3799
rtibia -2.46493e-014
rfoot -15.2726 -16.3631
rtoes -2.18337
lfemur -31.8044 -4.11393 -12.2009
ltibia 25.6543
lfoot -13.2174 6.50938
ltoes -55.9698
703
root -0.515051 18.8845 4.55679 17.805 4.91428 -0.136024
lowerback 26.6134 1.01563 -1.22909
upperback 1.26175 0.813842 -1.02384
thorax -13.4898 0.403815 -0.770467
lowerneck -9.04552 -0.00377582 -3.05332
upperneck -4.4675 0.32374 2.93099
head 0.114622 0.237121 1.43375
rclavicle 3.22031e-014 -1.45113e-014
rhumerus 39.6669 54.2966 -72.1937
rradius 143.411
rwrist -17.4302
rhand -28.1079 -25.269
rfingers 7.12502
rthumb -1.49013 -55.2436
lclavicle 3.22031e-014 -1.45113e-014
lhumerus 43.828 -46.6004 69.4553
lradius 145.542
lwrist 37.1588
lhand -22.3734 -52.3036
lfingers 7.12502
lthumb 4.04821 -22.3623
rfemur -14.1436 -4.9356 14.4104
rtibia 1.59028e-014
rfoot -15.3008 -16.4358
rtoes -2.34391
lfemur -31.7122 -4.36381 -12.0842
ltibia 25.6673
lfoot -13.267 6.71524
ltoes -55.9131
704
root -0.508566 18.8836 4.55293 17.8018 4.89345 -0.126641
lowerback 26.3855 0.939545 -1.16736
upperback 1.28849 0.741629 -1.0023
thorax -13.3335 0.36892 -0.749766
lowerneck -9.22228 -0.106221 -3.18952
upperneck -4.30304 0.201826 3.04116
head 0.200212 0.179628 1.49122
rclavicle -4.17448e-015 1.70955e-014
rhumerus 41.3662 53.2814 -70.373
rradius 143.439
rwrist -19.1448
rhand -28.3469 -25.7544
rfingers 7.12502
rthumb -1.72092 -55.7272
lclavicle -4.17448e-015 1.70955e-014
lhumerus 43.8141 -46.5309 69.6251
lradius 145.587
lwrist 38.0869
lhand -22.4981 -52.0776
lfingers 7.12502
lthumb 3.92777 -22.1341
rfemur -14.1678 -4.92223 14.383
rtibia 1.70955e-014
rfoot -15.2843 -16.538
rtoes -2.74626
lfemur -31.7357 -4.54367 -12.0512
ltibia 25.68
lfoot -13.2752 6.83589
ltoes -55.8412
705
root -0.505565 18.8824 4.55139 17.7436 4.83061 -0.119809
lowerback 26.2503 0.878012 -1.13113
upperback 1.30804 0.672735 -1.02106
thorax -13.2362 0.335157 -0.763971
lowerneck -9.3456 -0.184476 -3.18939
upperneck -4.19038 0.0990023 3.16478
head 0.260218 0.129828 1.5291
rclavicle 4.07509e-015 -7.15625e-015
rhumerus 41.7819 52.8859 -69.9791
rradius 143.471
rwrist -20.3038
rhand -28.0364 -25.4332
rfingers 7.12502
rthumb -1.42104 -55.4082
lclavicle 4.07509e-015 -7.15625e-015
lhumerus 43.7268 -46.4781 69.8172
lradius 145.613
lwrist 38.9315
lhand -23.0055 -51.4036
lfingers 7.12502
lthumb 3.43782 -21.4515
rfemur -14.1243 -4.85919 14.3523
rtibia -1.74931e-014
rfoot -15.2401 -16.6342
rtoes -3.3686
lfemur -31.6714 -4.6503 -12.0388
ltibia 25.6921
lfoot -13.3172 6.93558
ltoes -55.8486
706
root -0.505066 18.8816 4.55214 17.6212 4.74755 -0.120443
lowerback 26.2117 0.812477 -1.08225
upperback 1.30117 0.598426 -1.05055
thorax -13.2225 0.297448 -0.79804
lowerneck -9.33393 -0.221324 -3.23736
upperneck -4.08857 0.0520855 3.25488
head 0.292618 0.107399 1.56559
rclavicle 2.09718e-014 -1.07344e-014
rhumerus 41.6467 52.8755 -70.1115
rradius 143.576
rwrist -21.3021
rhand -27.9278 -25.3122
rfingers 7.12502
rthumb -1.31623 -55.2879
lclavicle 2.09718e-014 -1.07344e-014
lhumerus 43.5642 -46.4836 70.0009
lradius 145.667
lwrist 39.6239
lhand -23.5363 -50.883
lfingers 7.12502
lthumb 2.92521 -20.9233
rfemur -14.0037 -4.76801 14.3185
rtibia 2.46493e-014
rfoot -15.2327 -16.6808
rtoes -3.64996
lfemur -31.5094 -4.75742 -12.0212
ltibia 25.6995
lfoot -13.3751 7.04585
ltoes -55.883
707
root -0.504898 18.8807 4.55355 17.5328 4.68271 -0.121727
lowerback 26.1346 0.750709 -1.06946
upperback 1.29794 0.524931 -1.03861
thorax -13.1845 0.264086 -0.763601
lowerneck -9.45795 -0.302466 -3.35401
upperneck -3.9088 -0.0454253 3.30374
head 0.374298 0.0609993 1.60044
rclavicle 9.44227e-015 -2.04748e-014
rhumerus 41.8098 53.0956 -69.8467
rradius 143.843
rwrist -22.3153
rhand -28.3957 -26.1902
rfingers 7.12502
rthumb -1.76808 -56.1626
lclavicle 9.44227e-015 -2.04748e-014
lhumerus 43.459 -46.4868 70.1407
lradius 145.727
lwrist 40.16
lhand -23.8866 -50.5075
lfingers 7.12502
lthumb 2.58687 -20.5434
rfemur -13.9177 -4.69858 14.2893
rtibia -1.19271e-015
rfoot -15.2667 -16.6765
rtoes -3.50235
lfemur -31.3788 -4.81632 -12.0165
ltibia 25.6905
lfoot -13.4071 7.12186
ltoes -55.8966
